<?xml version="1.0" standalone="no"?>
<!DOCTYPE svg PUBLIC "-//W3C//DTD SVG 20010904//EN"
 "http://www.w3.org/TR/2001/REC-SVG-20010904/DTD/svg10.dtd">
<svg version="1.0" xmlns="http://www.w3.org/2000/svg"
 width="215.000000pt" height="215.000000pt" viewBox="0 0 215.000000 215.000000"
 preserveAspectRatio="xMidYMid meet">
<metadata>
Created by potrace 1.14, written by Peter Selinger 2001-2017
</metadata>
<g transform="translate(0.000000,215.000000) scale(0.100000,-0.100000)"
fill="#000000" stroke="none">
<path d="M890 2134 c-200 -34 -400 -135 -547 -274 -70 -67 -153 -163 -153
-178 0 -6 -4 -12 -9 -14 -14 -5 -90 -152 -115 -224 -83 -237 -85 -493 -5 -725
125 -364 457 -642 841 -704 80 -13 296 -14 348 -1 14 3 39 8 55 12 70 13 192
58 263 95 281 149 474 396 552 704 37 143 33 400 -7 530 -31 101 -55 162 -90
225 -161 296 -439 497 -766 554 -98 17 -269 17 -367 0z"/>
</g>
</svg>
